<svg width="20" height="20" viewBox="0 0 20 20" fill="none" xmlns="http://www.w3.org/2000/svg">
<path d="M10 13.3333L17.5 13.3333" stroke="#787474" stroke-width="1.5" stroke-linecap="round" stroke-linejoin="round"/>
<path d="M2.5 13.3333H4.16667" stroke="#787474" stroke-width="1.5" stroke-linecap="round" stroke-linejoin="round"/>
<path d="M7.08333 15.4167C8.23393 15.4167 9.16667 14.4839 9.16667 13.3333C9.16667 12.1827 8.23393 11.25 7.08333 11.25C5.93274 11.25 5 12.1827 5 13.3333C5 14.4839 5.93274 15.4167 7.08333 15.4167Z" stroke="#787474" stroke-width="1.5" stroke-linecap="round" stroke-linejoin="round"/>
<path d="M15.8335 6.66675H17.5002" stroke="#787474" stroke-width="1.5" stroke-linecap="round" stroke-linejoin="round"/>
<path d="M2.5 6.66675H10" stroke="#787474" stroke-width="1.5" stroke-linecap="round" stroke-linejoin="round"/>
<path d="M12.9168 8.74992C14.0674 8.74992 15.0002 7.81718 15.0002 6.66659C15.0002 5.51599 14.0674 4.58325 12.9168 4.58325C11.7662 4.58325 10.8335 5.51599 10.8335 6.66659C10.8335 7.81718 11.7662 8.74992 12.9168 8.74992Z" stroke="#787474" stroke-width="1.5" stroke-linecap="round" stroke-linejoin="round"/>
</svg>
